<svg xmlns="http://www.w3.org/2000/svg" version="1.1" xmlns:xlink="http://www.w3.org/1999/xlink" width="57" height="81"><svg width="57" height="81" fill="none" xmlns="http://www.w3.org/2000/svg"><path d="M30.51 45.947l4.877 14.499c1.769-.455 3.173-.878 4.39-1.363l-4.39-13.706c-1.964.145-3.513.276-4.877.57z" fill="#F9C701"></path><path d="M24.823 8.045c-3.058 6.761-2.737 10.606-.637 17.505l3.622-3.003c1.599-5.472 1.442-8.742 3.733-14.502.541-2.185-.205.5 2.844-.68 2.792.196 3.732 1.308 4.736 4.362 0 3.356-.39 3.194-2.368 5.665-3.285 3.053-3.996 2.758-8.945 5.155l-3.622 3.003c-7.168 3.725-10.751 6.044-16.574 10.48-4.443 4.37-6 6.963-7.103 11.84.628 3.774 1.756 5.866 6.284 9.517 4.755 2.296 7.443 3.567 13.568 4.872 5.999.42 9.386.585 15.846-.34 1.733 4.118 2.69 6.43 2.367 10.763.021 1.602-1.748 4.216-8.104 4.702-4.404 1.373-7.892.304-7.377 0 .516-.304 4.85-1.04 7.377-3.059.777-1.958.782-3.08-.547-5.155-1.753-2.08-3.42-2.804-7.74-3.23-4.005-.01-6.05.47-9.38 2.097-4.102 2.425-3.868 4.139-.638 7.591 3.633 2.805 5.421 4.519 13.387 4.872 5.78-.095 8.775-.543 13.022-3.116 4.536-2.467 4.94-4.088 4.736-7.081l-3.097-9.857-.436-1.363c-1.217.485-2.621.908-4.39 1.363-4.824.932-7.769 1.194-15.026-.51-3.111-.973-4.897-1.877-8.196-4.475-2.831-2.837-3.588-4.626-3.278-8.215 1.71-3.45 3.039-5.253 6.466-8.1 3.895-3.005 6.485-4.531 12.293-6.793l3.188-1.762c8.27-4.308 11.729-7.12 14.752-13.199.353-3.834.447-5.991-2.094-10.027-1.62-3.558-2.572-5.523-7.65-6.684-.928-.288-1.573-.19-2.732 0-5.157 1.658-7.127 3.172-8.287 7.364z" fill="#F9C701"></path><path d="M27.1 53.081c-2.084-2.035-2.759-3.176-.91-5.211 1.431-1.035 2.755-1.586 4.32-1.923l-2.135-6.348c-2.903.318-4.087.792-6.192 1.643-3.728 1.636-5.54 2.699-6.83 5.608-.221 3.035-.038 4.693 3.916 7.138 2.047 1.368 3.298 2.029 6.283 2.436 3.831-.818 4.616-1.215 3.734-1.813l-2.186-1.53z" fill="#F9C701"></path><path d="M32.928 38.974l-4.553.625 2.135 6.348c1.364-.294 2.913-.425 4.877-.57l-2.459-6.404z" fill="#F9C701"></path><path d="M28.375 39.599l4.553-.625c-.896-3.401-1.35-5.23-2.094-8.382l-3.188 1.76c-.984 2.824-.585 4.412.729 7.247zM41.215 46.453c4.597 2.786 6.396 4.568 3.734 9.404-1.725 1.498-3.2 2.442-5.172 3.226l.436 1.363c3.395-.496 5.231-1.313 8.47-3.06 4.027-2.06 5.441-3.465 7.285-6.174.992-2.443.617-3.865-1.093-6.458-2.671-2.34-4.637-3.492-9.289-5.155-3.823-.492-6.003-.742-10.199-.963l-2.459.337 2.459 6.404c2.402-.11 3.657.216 5.828 1.076z" fill="#F9C701"></path><path d="M24.186 25.55c-2.1-6.899-2.421-10.744.637-17.505 1.16-4.192 3.13-5.706 8.287-7.364 1.159-.19 1.804-.288 2.732 0 5.078 1.161 6.03 3.126 7.65 6.684 2.541 4.036 2.447 6.193 2.094 10.027-3.023 6.079-6.483 8.891-14.752 13.2m-6.648-5.042c-7.168 3.725-10.751 6.044-16.574 10.48-4.443 4.37-6 6.963-7.103 11.84.628 3.774 1.756 5.866 6.284 9.517 4.755 2.296 7.443 3.567 13.568 4.872 5.999.42 9.386.585 15.846-.34 1.733 4.118 2.69 6.43 2.367 10.763.021 1.602-1.748 4.216-8.104 4.702-4.404 1.373-7.892.304-7.377 0 .516-.304 4.85-1.04 7.377-3.059.777-1.958.782-3.08-.547-5.155-1.753-2.08-3.42-2.804-7.74-3.23-4.005-.01-6.05.47-9.38 2.097-4.102 2.425-3.868 4.139-.638 7.591 3.633 2.805 5.421 4.519 13.387 4.872 5.78-.095 8.775-.543 13.022-3.116 4.536-2.467 4.94-4.088 4.736-7.081l-3.097-9.857M24.186 25.55l3.622-3.003m3.026 8.044a283.147 283.147 0 002.094 8.383m-2.094-8.382l-3.188 1.76m7.741 28.094c-4.824.932-7.769 1.194-15.026-.51-3.111-.973-4.897-1.877-8.196-4.475-2.831-2.837-3.588-4.626-3.278-8.215 1.71-3.45 3.039-5.253 6.466-8.1 3.895-3.005 6.485-4.531 12.293-6.793m7.741 28.093l-4.877-14.5m4.877 14.5c1.769-.455 3.173-.878 4.39-1.363m-4.39 1.363l-4.877-14.5m4.877-.569c2.402-.11 3.657.216 5.828 1.076 4.597 2.786 6.396 4.568 3.734 9.404-1.725 1.498-3.2 2.442-5.172 3.226m-4.39-13.706l-2.459-6.404m2.459 6.404c-1.964.145-3.513.276-4.877.57m4.877-.57l4.39 13.706M28.375 39.6c-2.903.318-4.087.792-6.192 1.643-3.728 1.636-5.54 2.699-6.83 5.608-.221 3.035-.038 4.693 3.916 7.138 2.047 1.368 3.298 2.029 6.283 2.436 3.831-.818 4.616-1.215 3.734-1.813l-2.186-1.53c-2.084-2.035-2.759-3.176-.91-5.211 1.431-1.035 2.755-1.586 4.32-1.923m-2.135-6.348l4.553-.625m-4.553.625c-1.314-2.835-1.713-4.423-.729-7.246m.729 7.246l2.135 6.348m-2.135-6.348l2.135 6.348m9.703 14.499c3.395-.496 5.231-1.313 8.47-3.06 4.027-2.06 5.441-3.465 7.285-6.174.992-2.443.617-3.865-1.093-6.458-2.671-2.34-4.637-3.492-9.289-5.155-3.823-.492-6.003-.742-10.199-.963l-2.459.337m7.285 21.473l-.436-1.363m-11.97-36.536c1.6-5.472 1.443-8.742 3.735-14.502.54-2.185-.206.5 2.843-.68 2.792.196 3.732 1.308 4.736 4.362 0 3.356-.39 3.194-2.368 5.665-3.285 3.053-3.996 2.758-8.945 5.155z" stroke="#F9C701"></path><path d="M39.412 74.55a.329.329 0 01-.003-.288.411.411 0 01.222-.208c.117-.05.249-.027.394.07.2.13.361.208.485.232.26.047.585-.01.973-.175.372-.158.683-.385.934-.68.32-.38.402-.752.247-1.12-.128-.301-.4-.467-.818-.497-.354-.028-.747.042-1.179.211-.385.147-.742.2-1.072.162-.423-.05-.711-.256-.865-.618-.18-.426-.104-.919.231-1.476.322-.53.73-.9 1.223-1.109.233-.098.512-.17.838-.215.432-.061.682-.012.75.149.09.21.027.362-.189.454-.096.04-.274.086-.535.137a2.797 2.797 0 00-.59.161c-.372.164-.65.39-.836.681-.19.299-.23.58-.117.843.084.2.321.264.71.196.145-.025.413-.105.803-.239.566-.192 1.069-.201 1.507-.028.4.158.686.438.856.838.242.57.171 1.138-.212 1.702-.333.49-.801.862-1.406 1.118a3.091 3.091 0 01-1.311.259c-.533-.017-.88-.204-1.04-.56zM30.35 30.408a.432.432 0 01-.12.023 4.654 4.654 0 00-1.262.258c-.2.073-.413.17-.637.294-.224.122-.46.271-.706.447.08.151.137.274.171.37.124.34.273.815.447 1.425l1.552-.738c.455-.22.736-.35.844-.389a.408.408 0 01.309.005c.098.041.168.12.21.235.08.223.014.388-.202.497l-.846.394-1.64.77a14.501 14.501 0 00.304.941c.196.54.35.845.464.912.083.047.288.012.613-.106.152-.055.378-.142.68-.26.302-.12.53-.208.684-.264.05-.018.119-.052.209-.1.09-.053.157-.087.204-.104.26-.094.435-.014.527.24.075.206.016.368-.177.485-.213.13-.703.334-1.47.612-.758.275-1.282.352-1.57.229-.314-.133-.614-.592-.899-1.378a13.76 13.76 0 01-.175-.518c-.06-.188-.123-.393-.19-.613a.437.437 0 01-.117-.414 26.742 26.742 0 00-.495-1.595 3.268 3.268 0 00-.18-.383 3.382 3.382 0 01-.183-.387c-.105-.291-.036-.481.21-.57a.39.39 0 01.302.01c.266-.184.52-.344.766-.477a5.33 5.33 0 01.717-.326c.595-.216 1.096-.318 1.502-.304.188.006.313.094.374.263a.42.42 0 01-.001.295.355.355 0 01-.22.221zM39.168 56.157c.1.809-.02 1.523-.36 2.142a2.604 2.604 0 01-1.508 1.256c-.608.203-1.12.186-1.537-.051-.417-.24-.74-.7-.966-1.379-.214-.64-.283-1.348-.207-2.125.077-.781.283-1.46.618-2.035.223-.385.511-.636.865-.754.224-.075.546-.1.963-.074.51.028.8.15.871.364a.406.406 0 01-.02.308.372.372 0 01-.228.207c-.054.018-.141.013-.26-.016-.455-.103-.812-.112-1.072-.026-.185.062-.347.223-.485.484-.07.13-.156.354-.262.672-.318.946-.33 1.861-.035 2.746.155.464.335.765.54.903.224.15.544.156.961.017a1.81 1.81 0 001.013-.804c.245-.41.343-.914.295-1.51-.673.263-1.215.59-1.628.983a.407.407 0 01-.153.097.36.36 0 01-.313-.036.415.415 0 01-.189-.234c-.045-.135-.016-.266.088-.391.425-.504 1.29-.974 2.597-1.41a.387.387 0 01.5.253.377.377 0 01-.088.413zM36.593 51.33c-.228.075-.522-.152-.882-.68a13.277 13.277 0 01-.626-1.09c-.24.118-.55.288-.93.512l-.92.529c-.017.364-.072.908-.166 1.63-.034.164-.119.269-.255.314a.408.408 0 01-.302-.02.37.37 0 01-.203-.23c-.04-.118-.001-.631.114-1.538a.418.418 0 01-.136-.202c-.066-.2.013-.369.237-.506.108-.622.264-1.347.468-2.177.277-1.13.488-1.72.632-1.766.195-.065.373.027.534.276l.645 1.17 1.401 2.397.404.516c.138.177.218.299.24.366a.37.37 0 01-.027.305.394.394 0 01-.228.194zm-2.706-3.81l-.498 2.06c.274-.175.697-.418 1.27-.727l-.772-1.333zM34.42 43.407c-.233.227-.629.496-1.188.806-.515.287-.946.49-1.293.611-.248.087-.44.11-.575.072-.183-.052-.323-.216-.419-.491l-.35-1.247a70.508 70.508 0 00-1.208-3.782.402.402 0 01.01-.305.37.37 0 01.223-.202.363.363 0 01.3.02.395.395 0 01.2.232 69.53 69.53 0 011.22 3.827l.148.578c.05.21.106.394.166.55.644-.216 1.404-.65 2.277-1.301a.443.443 0 01.112-.06.355.355 0 01.31.033.43.43 0 01.182.23c.055.158.017.3-.115.43zM40.157 61.41a.429.429 0 01-.122.012 4.652 4.652 0 00-1.28.142 4.603 4.603 0 00-.661.235c-.234.102-.482.229-.744.381.066.158.111.286.137.384.092.35.197.837.316 1.46l1.613-.593c.472-.179.764-.282.875-.311a.408.408 0 01.307.032c.095.05.157.135.188.253.06.23-.022.389-.246.477l-.878.316-1.704.617.108.517c.036.16.073.31.11.448.146.557.272.873.378.95.08.055.286.038.621-.05.156-.04.39-.106.7-.196.312-.093.548-.16.706-.201.05-.014.123-.04.217-.082.094-.043.164-.071.212-.084.267-.07.435.026.504.288.056.211-.018.367-.22.466-.225.11-.731.269-1.52.476-.78.205-1.309.234-1.584.085-.301-.16-.558-.645-.77-1.453a13.958 13.958 0 01-.128-.532 38.276 38.276 0 01-.133-.628.438.438 0 01-.079-.423 26.865 26.865 0 00-.348-1.633 3.292 3.292 0 00-.145-.398 3.386 3.386 0 01-.146-.402c-.08-.3.007-.483.26-.55a.39.39 0 01.3.039c.281-.16.55-.295.806-.406.26-.111.507-.198.744-.26.612-.16 1.12-.216 1.523-.166.187.024.303.122.349.296a.42.42 0 01-.028.294.355.355 0 01-.238.2zM31.473 27.819c-.136.035-.267-.006-.392-.124-.107-.1-.228-.284-.363-.55l-.307-.614c-.21-.376-.607-1.222-1.192-2.538l-.157 2.476-.034.777c-.016.308-.05.566-.1.773-.055.22-.172.352-.351.4-.149.038-.287-.011-.415-.15a2.154 2.154 0 01-.257-.364l-.22-.391a33.79 33.79 0 01-1.424-2.68l.042.713.037 2.123c.042.24.07.602.085 1.088-.024.216-.123.348-.297.393a.375.375 0 01-.33-.055.436.436 0 01-.167-.254c-.11-.42-.16-.96-.147-1.618l.015-1.631-.093-1.248c-.036-.586-.014-.98.064-1.184.062-.173.168-.279.316-.318.164-.043.31.018.44.183.157.199.383.628.678 1.288a23.02 23.02 0 001.33 2.526c.118-1.067.175-2.162.171-3.284l-.032-.581c-.013-.234 0-.428.037-.583.05-.212.16-.341.33-.386.217-.057.437.109.66.497.079.133.206.417.382.853.448 1.099.889 2.022 1.323 2.77l.355.601c.188.323.292.524.313.605a.36.36 0 01-.053.305.413.413 0 01-.247.182zM26.146 20.656c-.81 0-1.414-.233-1.813-.7-.322-.374-.525-.929-.609-1.663-.039-.33-.058-.991-.058-1.98 0-.365.007-.66.023-.883.016-.237.039-.403.07-.496.065-.19.183-.286.352-.286.24 0 .36.22.36.66v2.294c0 1.578.551 2.367 1.655 2.367 1.04 0 1.56-1.329 1.56-3.985v-.383l-.005-.312c0-.162.029-.303.086-.426.073-.156.181-.234.324-.234.26 0 .39.178.39.535 0 .107.002.268.005.484v.485c0 3.015-.78 4.523-2.34 4.523zM30.025 6.445c-.047 0-.128-.009-.242-.027-.112-.021-.2-.031-.262-.031-.128 0-.277.004-.45.011l.02.465c0 1.938-.129 3.348-.386 4.23-.172.584-.473.876-.903.876-.453 0-.902-.164-1.347-.492-.493-.365-.739-.783-.739-1.254 0-.32.132-.48.395-.48s.394.157.394.472c0 .216.154.43.461.644.295.203.573.305.836.305.214 0 .362-.655.446-1.965.039-.62.058-1.398.058-2.336 0-.073-.006-.213-.02-.422l-.238.004c-.101 0-.255-.002-.46-.008a13.045 13.045 0 00-.462-.011.386.386 0 01-.406-.406c0-.269.181-.403.543-.403.089 0 .22.004.395.012.174.008.304.012.39.012.164 0 .41-.01.735-.028.328-.02.574-.031.738-.031.594 0 .89.151.89.453a.41.41 0 01-.105.277.355.355 0 01-.281.133z" fill="#4093FF"></path></svg><style>@media (prefers-color-scheme: light) { :root { filter: none; } }
@media (prefers-color-scheme: dark) { :root { filter: none; } }
</style></svg>