<svg width="207" height="191" fill="none" xmlns="http://www.w3.org/2000/svg"><path fill-rule="evenodd" clip-rule="evenodd" d="M90.08 159.307l-31.165 22.878v-37.781l-40.945 4.828 18.426-31.694L0 104.525l32.756-19.1L9.554 54.362h37.305l-4.094-38.41 32.983 18.47L93.718 0l17.971 28.755 34.803-19.52 3.185 35.472 37.305-3.778-17.515 30.434L207 85.425l-33.211 19.1 22.747 31.064h-37.988l3.64 36.941-35.713-16.582L111.689 191l-21.61-31.693zm56.412-18.471c-10.64 8.307-13.376 14.897-37.533 15.112-7.113 1.711-10.953 2.839-22.065 0-13.075-4.412-18.862-7.956-27.979-15.112-12.309-10.538-15.905-17.951-19.335-32.533-2.347-16.684 1.181-25.155 7.28-40.299C57.5 53.66 66.248 48.414 83.71 40.93c13.244-3.094 21.77-3.62 38.443-2.939 12.875 4.967 18.526 8.803 27.524 16.371 13.597 15.068 17.675 25.557 19.79 47.226-3.601 16.405-5.94 25.538-22.975 39.249z" fill="#F9C701"/><path d="M108.959 155.948c24.157-.215 26.893-6.805 37.533-15.112 17.035-13.711 19.374-22.844 22.975-39.249-2.115-21.669-6.193-32.158-19.79-47.226-8.998-7.568-14.649-11.404-27.524-16.37-16.673-.683-25.2-.156-38.443 2.938-17.461 7.485-26.21 12.73-36.85 27.075-6.099 15.144-9.627 23.615-7.28 40.299 3.43 14.582 7.026 21.995 19.335 32.533 9.117 7.156 14.904 10.7 27.98 15.112 11.11 2.839 14.951 1.711 22.064 0z" fill="#FFEB55"/></svg>