<svg width="20" height="20" fill="none" xmlns="http://www.w3.org/2000/svg"><g clip-path="url(#a)"><path d="M10.002 4.813c-2.837 0-5.126 2.262-5.126 5.066s2.289 5.066 5.126 5.066c2.838 0 5.127-2.262 5.127-5.066s-2.29-5.066-5.127-5.066zm0 8.36c-1.834 0-3.333-1.478-3.333-3.294s1.495-3.293 3.333-3.293 3.333 1.477 3.333 3.293-1.499 3.293-3.333 3.293zm6.532-8.567c0 .657-.535 1.182-1.195 1.182-.665 0-1.196-.53-1.196-1.182 0-.652.535-1.181 1.195-1.181s1.196.529 1.196 1.181zm3.396 1.2c-.076-1.583-.442-2.985-1.615-4.14C17.145.51 15.727.148 14.125.068c-1.65-.092-6.6-.092-8.25 0-1.597.075-3.016.437-4.19 1.592C.512 2.816.151 4.218.07 5.801c-.093 1.631-.093 6.52 0 8.152.076 1.583.442 2.985 1.615 4.14 1.174 1.155 2.588 1.516 4.19 1.596 1.65.092 6.6.092 8.25 0 1.602-.075 3.02-.437 4.19-1.596 1.168-1.155 1.534-2.557 1.615-4.14.093-1.631.093-6.516 0-8.148zm-2.133 9.897a3.355 3.355 0 01-1.9 1.878c-1.317.516-4.44.397-5.895.397-1.454 0-4.582.115-5.894-.397a3.355 3.355 0 01-1.9-1.878c-.523-1.3-.402-4.387-.402-5.824 0-1.437-.116-4.528.401-5.824a3.355 3.355 0 011.901-1.878c1.316-.516 4.44-.397 5.894-.397 1.455 0 4.582-.115 5.894.397a3.355 3.355 0 011.901 1.878c.522 1.3.401 4.387.401 5.824 0 1.437.121 4.528-.401 5.824z" fill="#000"/></g><defs><clipPath id="a"><path fill="#fff" d="M0 0H20V19.758H0z"/></clipPath></defs></svg>