<svg width="23" height="21" fill="none" xmlns="http://www.w3.org/2000/svg"><path d="M18.966.5h-4.858v13.896c-1.347 2.028-2.6 2.431-5.3 2.47-2.003-.398-2.911-.775-3.534-2.162-.673-2.504.095-3.02 1.767-3.705 2.435-.646 3.527-.525 5.3 0V7.602c-2.752-.377-4.3-.28-7.067.309C3.07 8.76 1.872 9.258 1.3 10.999c-1.352 2.561-.842 3.873.442 6.176 1.556 1.885 2.649 2.599 5.3 2.779 3.618.544 5.408.428 7.95-.927 2.847-1.611 3.358-2.68 3.976-4.631V6.367c1 .197 1.693.238 3.533 0V2.97s-3.534 0-3.534-.926V.5z" stroke="#000"/></svg>